# xmcd
#
# Track frame offsets:
#	150
#	9984
#	24598
#	37968
#	47937
#	59180
#	70267
#	81140
#	94868
#	109069
#	118771
#
# Disc length: 1774 seconds
#
# Revision: 1
# Processed by: cddbd v1.5.2PL0 Copyright (c) Steve Scherf et al.
# Submitted via: audiograbber 1.83.01
#
DISCID=9206ec0b
DTITLE=Yvonne Devaney - A Good Thing
DYEAR=1900
DGENRE=
TTITLE0=A Good Thing
TTITLE1=Jamica Sunset
TTITLE2=Yodel Love
TTITLE3=Born Loving You
TTITLE4=Lover´s Waltz
TTITLE5=Back In Babys Arms
TTITLE6=Yodeling Swing
TTITLE7=Lady Paree
TTITLE8=Loving Side Of Love
TTITLE9=God It Made
TTITLE10=Yodel Waltz
EXTD=
EXTT0=
EXTT1=
EXTT2=
EXTT3=
EXTT4=
EXTT5=
EXTT6=
EXTT7=
EXTT8=
EXTT9=
EXTT10=
PLAYORDER=
